<?xml version="1.0" encoding="utf-8"?>
<svg viewBox="0 0 500 250" width="500" height="250" xmlns="http://www.w3.org/2000/svg" xmlns:bx="https://boxy-svg.com">
  <path style="fill: rgb(0, 156, 8);" transform="matrix(0, 0.420521, -0.420521, 0, 464.465729, -84.945236)" d="M 796.5 1104.5 A 594.5 594.5 0 0 1 447.061667512 990.960603156 L 569.365083883 822.624392051 A 386.425 386.425 0 0 0 796.5 896.425 Z" bx:shape="pie 796.5 510 386.425 594.5 180 216 1@5db5ca91"/>
  <path style="fill: rgb(132, 225, 66);" transform="matrix(-0.247176, 0.340209, -0.340209, -0.247176, 620.382324, 105.083427)" d="M 796.5 1104.5 A 594.5 594.5 0 0 1 447.061667512 990.960603156 L 569.365083883 822.624392051 A 386.425 386.425 0 0 0 796.5 896.425 Z" bx:shape="pie 796.5 510 386.425 594.5 180 216 1@5db5ca91" bx:origin="1.000002 -1.109086"/>
  <path style="fill: rgb(255, 244, 26);" transform="matrix(-0.399939, 0.129948, -0.129948, -0.399939, 634.825562, 350.465454)" d="M 796.5 1104.5 A 594.5 594.5 0 0 1 447.061667512 990.960603156 L 569.365083883 822.624392051 A 386.425 386.425 0 0 0 796.5 896.425 Z" bx:shape="pie 796.5 510 386.425 594.5 180 216 1@5db5ca91" bx:origin="1.000002 -1.109086"/>
  <path style="fill: rgb(234, 113, 27);" transform="matrix(-0.399939, -0.129948, 0.129948, -0.399939, 502.277985, 557.472717)" d="M 796.5 1104.5 A 594.5 594.5 0 0 1 447.061667512 990.960603156 L 569.365083883 822.624392051 A 386.425 386.425 0 0 0 796.5 896.425 Z" bx:shape="pie 796.5 510 386.425 594.5 180 216 1@5db5ca91" bx:origin="1.000002 -1.109086"/>
  <path style="fill: rgb(208, 55, 41);" transform="matrix(-0.247176, -0.340208, 0.340208, -0.247176, 273.369263, 647.036072)" d="M 796.5 1104.5 A 594.5 594.5 0 0 1 447.061667512 990.960603156 L 569.365083883 822.624392051 A 386.425 386.425 0 0 0 796.5 896.425 Z" bx:shape="pie 796.5 510 386.425 594.5 180 216 1@5db5ca91" bx:origin="1.000002 -1.109086"/>
</svg>